<svg width="85" height="85" viewBox="0 0 85 85" fill="none" xmlns="http://www.w3.org/2000/svg">
<path d="M52.5194 22.3196C49.9056 22.1992 49.1194 22.1779 42.5 22.1779C35.8806 22.1779 35.0979 22.2027 32.4842 22.3196C25.7585 22.6277 22.6277 25.8117 22.3196 32.4842C22.2027 35.0979 22.1744 35.8806 22.1744 42.5C22.1744 49.1194 22.2027 49.9021 22.3196 52.5194C22.6277 59.1742 25.7444 62.3758 32.4842 62.684C35.0944 62.8008 35.8806 62.8292 42.5 62.8292C49.1229 62.8292 49.9056 62.8044 52.5194 62.684C59.245 62.3794 62.3723 59.1848 62.684 52.5194C62.8008 49.9056 62.8256 49.1194 62.8256 42.5C62.8256 35.8806 62.8008 35.0979 62.684 32.4842C62.3723 25.8152 59.2379 22.6277 52.5194 22.3196ZM42.5 55.2323C35.4698 55.2323 29.7677 49.5338 29.7677 42.5C29.7677 35.4698 35.4698 29.7713 42.5 29.7713C49.5302 29.7713 55.2323 35.4698 55.2323 42.5C55.2323 49.5302 49.5302 55.2323 42.5 55.2323ZM55.7352 32.2433C54.0919 32.2433 52.7602 30.9117 52.7602 29.2683C52.7602 27.625 54.0919 26.2933 55.7352 26.2933C57.3785 26.2933 58.7102 27.625 58.7102 29.2683C58.7102 30.9081 57.3785 32.2433 55.7352 32.2433ZM50.7627 42.5C50.7627 47.0652 47.0617 50.7627 42.5 50.7627C37.9383 50.7627 34.2373 47.0652 34.2373 42.5C34.2373 37.9348 37.9383 34.2373 42.5 34.2373C47.0617 34.2373 50.7627 37.9348 50.7627 42.5ZM42.5 0C19.0294 0 0 19.0294 0 42.5C0 65.9706 19.0294 85 42.5 85C65.9706 85 85 65.9706 85 42.5C85 19.0294 65.9706 0 42.5 0ZM67.1429 52.7212C66.7356 61.7348 61.7171 66.7285 52.7248 67.1429C50.0792 67.2633 49.2327 67.2917 42.5 67.2917C35.7673 67.2917 34.9244 67.2633 32.2788 67.1429C23.2688 66.7285 18.2715 61.7277 17.8571 52.7212C17.7367 50.0792 17.7083 49.2327 17.7083 42.5C17.7083 35.7673 17.7367 34.9244 17.8571 32.2788C18.2715 23.2688 23.2723 18.2715 32.2788 17.8606C34.9244 17.7367 35.7673 17.7083 42.5 17.7083C49.2327 17.7083 50.0792 17.7367 52.7248 17.8606C61.7383 18.275 66.7392 23.2865 67.1429 32.2788C67.2633 34.9244 67.2917 35.7673 67.2917 42.5C67.2917 49.2327 67.2633 50.0792 67.1429 52.7212Z" fill="#F5F5F5"/>
</svg>
